<?xml version="1.0" encoding="utf-8"?>
<!-- Generator: Adobe Illustrator 19.2.0, SVG Export Plug-In . SVG Version: 6.00 Build 0)  -->
<svg version="1.1" id="Layer_1" xmlns="http://www.w3.org/2000/svg" xmlns:xlink="http://www.w3.org/1999/xlink" x="0px" y="0px"
	 viewBox="0 0 24 24" style="enable-background:new 0 0 24 24;" xml:space="preserve">
<style type="text/css">
	.st0{fill:#72A0BA;}
	.st1{fill:#6A8791;}
	.st2{fill:#E1F5FE;}
</style>
<path class="st0" d="M20.3,22.5H3.6c-1.2,0-2.1-1.1-2.1-2.5V4c0-1.4,0.9-2.5,2.1-2.5h16.9c1.2,0,2.1,1.1,2.1,2.5v16.1
	C22.5,21.4,21.5,22.5,20.3,22.5z"/>
<g>
	<path class="st1" d="M15.5,8.4v0.3c0,0.5-0.2,0.8-0.5,0.8c-0.1,0-0.3-0.2-0.6-0.7S13.8,8,13.5,7.8c-0.3-0.2-0.8-0.3-1.2-0.3
		c-0.5,0-0.8,0.1-0.9,0.2c-0.3,0.2-0.4,0.5-0.5,0.8c0,0.4-0.1,1.9-0.1,4.5s0,4.2,0.1,4.5s0.4,0.8,0.8,1c0.4,0.3,0.6,0.5,0.6,0.7
		c0,0.2-0.3,0.3-0.8,0.3H11h-0.7c-0.2,0-0.4,0-0.7,0H8.8c-0.8,0-1.3,0-1.5-0.1C7.1,19.4,7,19.2,7,19c0-0.1,0.2-0.3,0.6-0.6
		c0.4-0.3,0.7-0.6,0.8-1c0.1-0.4,0.2-2,0.2-4.7s0-4.2-0.1-4.5c0-0.4-0.4-0.6-1-0.6c-0.6,0-1,0.1-1.4,0.3C5.6,8.1,5.3,8.4,5,8.8
		C4.8,9.3,4.5,9.6,4.2,9.6C4,9.6,3.9,9.4,3.9,9.1V8.8c0-1.3,0.1-2.1,0.4-2.3c0.1,0,1.9-0.1,5.6-0.1h4.4c0.5,0,0.8,0.1,0.9,0.4
		C15.4,7.1,15.5,7.5,15.5,8.4z"/>
	<path class="st1" d="M20.4,18.3l1.4-0.2c0.2,0,0.3,0.1,0.3,0.4c0,0.3-0.3,0.5-0.8,0.8c-0.5,0.3-0.9,0.4-1.5,0.4h-0.2
		c-0.4,0-0.8-0.1-1.1-0.3c-0.4-0.2-0.6-0.5-0.8-0.8c-0.3-0.6-0.4-1.6-0.4-3.2c0-1.5-0.1-2.5-0.2-2.9c-0.1-0.4-0.3-0.7-0.5-0.8
		c-0.3-0.3-0.5-0.4-0.5-0.5c0-0.2,0.1-0.3,0.3-0.4c0.5-0.3,0.7-0.5,0.8-0.5c0,0,0.3-0.6,0.8-1.5C18.2,8.3,18.5,8,18.8,8
		s0.5,0.1,0.6,0.3c0,0.1,0.1,0.3,0.2,0.8c0.1,0.5,0.2,0.8,0.4,0.9c0.2,0.1,0.5,0.3,1,0.4c0.6,0.1,0.8,0.3,0.8,0.6
		c0,0.3-0.3,0.4-0.8,0.6c-0.6,0.1-0.9,0.3-1,0.5c-0.2,0.3-0.3,1.2-0.3,2.7c0,1.5,0.1,2.5,0.2,2.8C19.7,18,20,18.3,20.4,18.3z"/>
</g>
<g>
	<path class="st2" d="M14.5,7.4v0.3c0,0.5-0.2,0.8-0.5,0.8c-0.1,0-0.3-0.2-0.6-0.7c-0.3-0.5-0.7-0.8-0.9-0.9
		c-0.3-0.2-0.8-0.3-1.2-0.3c-0.5,0-0.8,0.1-0.9,0.2C10,6.9,9.9,7.2,9.8,7.5c0,0.4-0.1,1.9-0.1,4.5s0,4.2,0.1,4.5s0.4,0.8,0.8,1
		c0.4,0.3,0.6,0.5,0.6,0.7c0,0.2-0.3,0.3-0.8,0.3H10H9.4c-0.2,0-0.4,0-0.7,0H7.8c-0.8,0-1.3,0-1.5-0.1C6.1,18.4,6,18.2,6,18
		c0-0.1,0.2-0.3,0.6-0.6c0.4-0.3,0.7-0.6,0.8-1c0.1-0.4,0.2-2,0.2-4.7s0-4.2-0.1-4.5c0-0.4-0.4-0.6-1-0.6c-0.6,0-1,0.1-1.4,0.3
		C4.6,7.1,4.3,7.4,4,7.8C3.8,8.3,3.5,8.6,3.2,8.6C3,8.6,2.9,8.4,2.9,8.1V7.8c0-1.3,0.1-2.1,0.4-2.3c0.1,0,1.9-0.1,5.6-0.1h4.4
		c0.5,0,0.8,0.1,0.9,0.4C14.4,6.1,14.5,6.5,14.5,7.4z"/>
	<path class="st2" d="M19.4,17.3l1.4-0.2c0.2,0,0.3,0.1,0.3,0.4c0,0.3-0.3,0.5-0.8,0.8c-0.5,0.3-0.9,0.4-1.5,0.4h-0.2
		c-0.4,0-0.8-0.1-1.1-0.3c-0.4-0.2-0.6-0.5-0.8-0.8c-0.3-0.6-0.4-1.6-0.4-3.2c0-1.5-0.1-2.5-0.2-2.9c-0.1-0.4-0.3-0.7-0.5-0.8
		c-0.3-0.3-0.5-0.4-0.5-0.5c0-0.2,0.1-0.3,0.3-0.4c0.5-0.3,0.7-0.5,0.8-0.5c0,0,0.3-0.6,0.8-1.5C17.2,7.3,17.5,7,17.8,7
		s0.5,0.1,0.6,0.3c0,0.1,0.1,0.3,0.2,0.8c0.1,0.5,0.2,0.8,0.4,0.9c0.2,0.1,0.5,0.3,1,0.4c0.6,0.1,0.8,0.3,0.8,0.6
		c0,0.3-0.3,0.4-0.8,0.6c-0.6,0.1-0.9,0.3-1,0.5c-0.2,0.3-0.3,1.2-0.3,2.7c0,1.5,0.1,2.5,0.2,2.8C18.7,17,19,17.3,19.4,17.3z"/>
</g>
</svg>
