<?xml version="1.0" encoding="utf-8"?>
<!-- Generator: Adobe Illustrator 19.2.0, SVG Export Plug-In . SVG Version: 6.00 Build 0)  -->
<svg version="1.1" id="Layer_1" xmlns="http://www.w3.org/2000/svg" xmlns:xlink="http://www.w3.org/1999/xlink" x="0px" y="0px"
	 viewBox="0 0 48 48" style="enable-background:new 0 0 48 48;" xml:space="preserve">
<style type="text/css">
	.st0{fill:#FBC02D;}
	.st1{fill:#FFF59D;}
	.st2{fill:#5C6BC0;}
	.st3{fill:#9FA8DA;}
</style>
<path class="st0" d="M39.4,16.9c0-9.2-7.8-16.4-17.2-15.3C15.1,2.4,9.4,8.1,8.7,15.2c-0.6,5.5,1.7,10.3,5.5,13.4
	c1.7,1.4,2.7,3.4,2.7,5.7v0.4h14.3v-0.1c0-2.1,1-4.3,2.6-5.7C37.2,26,39.4,21.7,39.4,16.9z"/>
<path class="st1" d="M31.8,14.7l-3.6-2.4c-0.4-0.2-1-0.2-1.3,0l-3,1.9l-2.9-1.9c-0.4-0.2-1-0.2-1.3,0l-3.6,2.4
	c-0.2,0.2-0.5,0.5-0.5,0.8s0,0.7,0.2,1l4.5,5.6v12.6h2.4V21.6c0-0.2-0.1-0.5-0.2-0.7L18.8,16l1.8-1.2l2.9,1.9c0.4,0.2,1,0.2,1.3,0
	l2.9-1.9l1.8,1.2l-3.9,4.9c-0.1,0.2-0.2,0.5-0.2,0.7v13.1h2.4V22.1l4.5-5.6c0.2-0.2,0.4-0.6,0.2-1C32.2,15.2,32.1,14.8,31.8,14.7z"
	/>
<circle class="st2" cx="24" cy="43" r="3.6"/>
<path class="st3" d="M26.4,44.2h-4.8c-2.6,0-4.8-2.1-4.8-4.8v-5.9h14.3v5.9C31.1,42.1,29,44.2,26.4,44.2z"/>
<g>
	<path class="st2" d="M31.1,39.4l-13.8,1.9c0.4,0.8,1.1,1.7,1.9,2.1l11.2-1.5C30.9,41.2,31.1,40.4,31.1,39.4z"/>
	<polygon class="st2" points="16.9,36.7 16.9,39.1 31.1,37.1 31.1,34.7 	"/>
</g>
</svg>
