<?xml version="1.0" encoding="utf-8"?>
<!-- Generator: Adobe Illustrator 19.2.0, SVG Export Plug-In . SVG Version: 6.00 Build 0)  -->
<svg version="1.1" id="Layer_1" xmlns="http://www.w3.org/2000/svg" xmlns:xlink="http://www.w3.org/1999/xlink" x="0px" y="0px"
	 viewBox="0 0 48 48" style="enable-background:new 0 0 48 48;" xml:space="preserve">
<style type="text/css">
	.st0{fill:#1976D2;}
	.st1{fill:#90CAF9;}
</style>
<path class="st0" d="M33.6,13l0.1-7.8L39,5c2.2,0,4,2.3,4,4.1V13H33.6z"/>
<path class="st1" d="M35,43V9c0-2.2,1.8-4,4-4H10C7.8,5,6,6.8,6,9v34H35z"/>
<g>
	<rect x="11" y="29" class="st0" width="5" height="2"/>
	<rect x="16.8" y="25" class="st0" width="5.3" height="2"/>
	<rect x="11" y="17.7" class="st0" width="8" height="2"/>
	<rect x="21.1" y="13" class="st0" width="7.9" height="2"/>
	<rect x="22.5" y="33" class="st0" width="6.5" height="2"/>
	<rect x="13" y="37.1" class="st0" width="8" height="2"/>
	<rect x="25.7" y="21" class="st0" width="3.6" height="2"/>
	<rect x="11" y="13" class="st0" width="3.3" height="2"/>
	<rect x="25.7" y="29" class="st0" width="3.3" height="2"/>
</g>
</svg>
