<?xml version="1.0" encoding="utf-8"?>
<!-- Generator: Adobe Illustrator 19.2.0, SVG Export Plug-In . SVG Version: 6.00 Build 0)  -->
<svg version="1.1" id="Layer_1" xmlns="http://www.w3.org/2000/svg" xmlns:xlink="http://www.w3.org/1999/xlink" x="0px" y="0px"
	 viewBox="0 0 24 24" style="enable-background:new 0 0 24 24;" xml:space="preserve">
<style type="text/css">
	.st0{fill:#7A7A7A;}
	.st1{fill:#3190DD;}
	.st2{fill:#51B5ED;}
</style>
<path class="st0" d="M4.6,22.1l0.5,0.4l5.3-6.7c-0.6-0.4-0.7-0.5-1.3-0.9L4.6,22.1z"/>
<path class="st1" d="M9.2,10.1l-3.3,0.2l-0.9,1.2C4.9,11.7,5,12,5.2,12.1l3.7,2.6l0.2,0.1c0.6,0.4,0.7,0.5,1.3,0.9l0.2,0.1l3.7,2.6
	c0.2,0.2,0.5,0.1,0.7-0.1l0.9-1.2l-1-3.1"/>
<polyline class="st2" points="13.3,3.1 9.2,10.1 14.8,13.9 19.9,7.7 "/>
<path class="st1" d="M19.9,7.7l0.6,0.4l1-1.1c0.2-0.2,0.2-0.6-0.1-0.7l-7.3-5.1c-0.2-0.2-0.6-0.1-0.7,0.2l-0.7,1.3l0.6,0.4"/>
</svg>
