<?xml version="1.0" encoding="utf-8"?>
<!-- Generator: Adobe Illustrator 19.2.0, SVG Export Plug-In . SVG Version: 6.00 Build 0)  -->
<svg version="1.1" id="Layer_1" xmlns="http://www.w3.org/2000/svg" xmlns:xlink="http://www.w3.org/1999/xlink" x="0px" y="0px"
	 viewBox="0 0 48 48" style="enable-background:new 0 0 48 48;" xml:space="preserve">
<style type="text/css">
	.st0{fill:#32B232;}
</style>
<path class="st0" d="M36.8,29.9l-0.4,0.9c-1.4,2.9-3.8,5.3-6.7,6.6c-3.3,1.6-7,1.6-10.5,0.1c-3.3-1.5-6.2-4.3-7.8-7.7l-0.9,0.4l0,0
	l-2.6,1.2c0,0,0,0,0,0l-1.8,0.9c2.3,4.9,6.2,8.7,11.1,10.8c2.4,1,4.9,1.5,7.4,1.5c2.7,0,5.3-0.6,7.8-1.7c4.1-1.9,7.5-5.3,9.4-9.4
	l0.4-0.9L36.8,29.9z"/>
<polygon class="st0" points="41.4,23.5 30.6,31.2 45.5,36.6 "/>
<path class="st0" d="M41.2,15.8l0.9-0.4c-2.3-4.8-6.3-8.5-11.3-10.3c-5-1.8-10.5-1.6-15.3,0.7c-4.4,2.1-7.9,5.6-9.8,9.9l-0.4,0.9
	l5.4,2.4l0.4-0.9c1.4-3,3.8-5.5,6.9-6.9c3.4-1.6,7.2-1.8,10.7-0.5c3.5,1.3,6.3,3.8,7.9,7.2l0.9-0.4c0,0,0,0,0,0l0.6-0.3l0.3-0.1
	c0,0,0,0,0,0L41.2,15.8C41.2,15.8,41.2,15.8,41.2,15.8z"/>
<polygon class="st0" points="2.2,12.1 6.3,25.2 17,17.4 "/>
</svg>
