<svg id="5e86fa3b-5a92-4c86-8764-6c4c3ef057e2" data-name="Layer 1" xmlns="http://www.w3.org/2000/svg" viewBox="0 0 21.83 21.83"><title>save</title><path id="5b8312b7-23c6-4090-9d9e-dea3850a906f" data-name="rect1314" d="M1.95,1.08H22.05a0.86,0.86,0,0,1,.86.86V22.05a0.86,0.86,0,0,1-.86.86h-19l-2-2v-19A0.86,0.86,0,0,1,1.95,1.08Z" transform="translate(-1.08 -1.08)" style="fill:#8667c4"/><path d="M19.75,2.38H4.25a0.55,0.55,0,0,0-.58.51v10a0.55,0.55,0,0,0,.58.51h15.5a0.55,0.55,0,0,0,.58-0.51v-10A0.55,0.55,0,0,0,19.75,2.38Z" transform="translate(-1.08 -1.08)" style="fill:#fff"/><path id="886f92f0-78e3-4bcf-926a-45f34866ebe6" data-name="top paper line" d="M6,5.61H18" transform="translate(-1.08 -1.08)" style="fill:none;stroke:#d3d7cf;stroke-linecap:square;stroke-width:3px"/><path id="4f21707a-32a3-4717-bb02-5c14605cc365" data-name="bottom paper line" d="M6,9.77H18" transform="translate(-1.08 -1.08)" style="fill:none;stroke:#d3d7cf;stroke-linecap:square;stroke-width:3px"/><path id="0744c38e-74e5-4c2d-ab1f-a72fae08bae8" data-name="slider bg" d="M20,22.92V16.31a1,1,0,0,0-1.12-.86H6.08a1.37,1.37,0,0,0-.61.22,0.81,0.81,0,0,0-.37.65v6.61" transform="translate(-1.08 -1.08)" style="fill:#5e35b1"/><path id="a1e4ddf6-e2ae-41de-b370-83cd9a6a45cf" data-name="rect2192" d="M5.86,15.45a0.91,0.91,0,0,0-.47.22,0.88,0.88,0,0,0-.29.65v6.61H16.6V16.31a0.86,0.86,0,0,0-.86-0.86H5.86Zm1.8,1.15H10a0.34,0.34,0,0,1,.2.07l0.05,0.05a0.34,0.34,0,0,1,.07.2v4a0.34,0.34,0,0,1-.07.2l-0.05.05a0.34,0.34,0,0,1-.2.07H7.73a0.34,0.34,0,0,1-.2-0.07l-0.05-.05a0.34,0.34,0,0,1-.07-0.2V16.92a0.34,0.34,0,0,1,.07-0.2l0.05-.05A0.36,0.36,0,0,1,7.65,16.6Z" transform="translate(-1.08 -1.08)" style="fill:#d3d7cf"/></svg>