<?xml version="1.0" encoding="utf-8"?>
<!-- Generator: Adobe Illustrator 19.2.0, SVG Export Plug-In . SVG Version: 6.00 Build 0)  -->
<svg version="1.1" id="Layer_1" xmlns="http://www.w3.org/2000/svg" xmlns:xlink="http://www.w3.org/1999/xlink" x="0px" y="0px"
	 viewBox="0 0 24 24" style="enable-background:new 0 0 24 24;" xml:space="preserve">
<style type="text/css">
	.st0{fill:#7F7E7E;}
	.st1{fill:#AFAFAF;}
</style>
<path class="st0" d="M18.2,3.9H5.8C5.6,3.9,5.5,4,5.5,4.2V6h13V4.2C18.5,4,18.4,3.9,18.2,3.9z"/>
<polyline class="st1" points="15.3,3.9 14.7,2.8 9.3,2.8 8.7,3.9 "/>
<line class="st0" x1="18.5" y1="3.9" x2="15.3" y2="3.9"/>
<path class="st1" d="M6.4,19c0,1.2,0,2.2,1.2,2.2h8.7c1.2,0,1.2-1,1.2-2.2V6H6.4V19z"/>
<path class="st0" d="M12.4,19.3h-0.8c-0.1,0-0.2-0.1-0.2-0.2V8c0-0.1,0.1-0.2,0.2-0.2h0.8c0.1,0,0.2,0.1,0.2,0.2v11
	C12.7,19.2,12.5,19.3,12.4,19.3z"/>
<path class="st0" d="M15.4,19.3h-0.6c-0.1,0-0.2-0.1-0.2-0.2V8c0-0.1,0.1-0.2,0.2-0.2h0.6c0.1,0,0.2,0.1,0.2,0.2v11
	C15.6,19.2,15.5,19.3,15.4,19.3z"/>
<path class="st0" d="M9.2,19.3H8.6c-0.1,0-0.2-0.1-0.2-0.2V8c0-0.1,0.1-0.2,0.2-0.2h0.6c0.1,0,0.2,0.1,0.2,0.2v11
	C9.5,19.2,9.4,19.3,9.2,19.3z"/>
</svg>
